<svg    width="4389" height="1169" viewBox="0 0 4389 1169" fill="none" xmlns="http://www.w3.org/2000/svg">
<path d="M1482.66 551.94C1458.63 522.613 1428.95 507.95 1393.62 507.95C1378.07 507.95 1363.59 510.777 1350.16 516.43C1337.09 522.083 1325.78 529.857 1316.24 539.75C1306.7 549.29 1299.1 560.773 1293.45 574.2C1288.15 587.627 1285.5 602.113 1285.5 617.66C1285.5 633.56 1288.15 648.223 1293.45 661.65C1299.1 675.077 1306.7 686.737 1316.24 696.63C1326.13 706.523 1337.62 714.297 1350.69 719.95C1363.76 725.603 1377.9 728.43 1393.09 728.43C1426.3 728.43 1456.16 714.297 1482.66 686.03V808.99L1472.06 812.7C1456.16 818.353 1441.32 822.417 1427.54 824.89C1413.76 827.717 1400.16 829.13 1386.73 829.13C1359.17 829.13 1332.67 824.007 1307.23 813.76C1282.14 803.16 1259.88 788.497 1240.45 769.77C1221.37 750.69 1206 728.253 1194.34 702.46C1182.68 676.313 1176.85 647.87 1176.85 617.13C1176.85 586.39 1182.5 558.3 1193.81 532.86C1205.47 507.067 1220.84 484.983 1239.92 466.61C1259.35 447.883 1281.79 433.397 1307.23 423.15C1332.67 412.55 1359.35 407.25 1387.26 407.25C1403.16 407.25 1418.71 409.017 1433.9 412.55C1449.45 415.73 1465.7 420.853 1482.66 427.92V551.94ZM1619.4 378.1V818H1523.47V378.1H1619.4ZM1764.98 546.11V818H1669.05V546.11H1764.98ZM1662.69 441.7C1662.69 434.28 1664.1 427.39 1666.93 421.03C1669.76 414.317 1673.64 408.487 1678.59 403.54C1683.54 398.593 1689.19 394.707 1695.55 391.88C1702.26 389.053 1709.33 387.64 1716.75 387.64C1724.17 387.64 1731.06 389.053 1737.42 391.88C1744.13 394.707 1749.96 398.593 1754.91 403.54C1759.86 408.487 1763.74 414.317 1766.57 421.03C1769.4 427.39 1770.81 434.28 1770.81 441.7C1770.81 449.12 1769.4 456.187 1766.57 462.9C1763.74 469.26 1759.86 474.913 1754.91 479.86C1749.96 484.807 1744.13 488.693 1737.42 491.52C1731.06 494.347 1724.17 495.76 1716.75 495.76C1709.33 495.76 1702.26 494.347 1695.55 491.52C1689.19 488.693 1683.54 484.807 1678.59 479.86C1673.64 474.913 1669.76 469.26 1666.93 462.9C1664.1 456.187 1662.69 449.12 1662.69 441.7ZM2019.74 634.09C2003.14 622.783 1986.35 617.13 1969.39 617.13C1960.21 617.13 1951.55 618.72 1943.42 621.9C1935.65 625.08 1928.76 629.673 1922.75 635.68C1916.75 641.333 1911.98 648.223 1908.44 656.35C1905.26 664.123 1903.67 672.957 1903.67 682.85C1903.67 692.39 1905.26 701.223 1908.44 709.35C1911.98 717.123 1916.57 724.013 1922.22 730.02C1928.23 735.673 1935.3 740.09 1943.42 743.27C1951.55 746.45 1960.21 748.04 1969.39 748.04C1987.41 748.04 2004.2 741.857 2019.74 729.49V811.11C1996.07 821.357 1973.63 826.48 1952.43 826.48C1932.65 826.48 1913.74 823.123 1895.72 816.41C1878.06 809.697 1862.33 800.157 1848.55 787.79C1835.13 775.07 1824.35 760.053 1816.22 742.74C1808.1 725.073 1804.03 705.463 1804.03 683.91C1804.03 662.357 1807.92 642.747 1815.69 625.08C1823.47 607.06 1834.07 591.69 1847.49 578.97C1860.92 565.897 1876.82 555.827 1895.19 548.76C1913.92 541.34 1933.88 537.63 1955.08 537.63C1978.4 537.63 1999.96 542.577 2019.74 552.47V634.09ZM2167.95 378.1V644.16L2268.65 546.11H2400.09L2263.88 671.72L2408.04 818H2273.42L2167.95 707.23V818H2072.02V378.1H2167.95ZM2613.63 616.07C2595.96 606.883 2578.65 602.29 2561.69 602.29C2552.86 602.29 2545.61 604.057 2539.96 607.59C2534.66 611.123 2532.01 615.893 2532.01 621.9C2532.01 625.08 2532.36 627.73 2533.07 629.85C2534.13 631.617 2536.07 633.383 2538.9 635.15C2542.08 636.917 2546.5 638.507 2552.15 639.92C2558.16 641.333 2565.93 643.1 2575.47 645.22C2601.97 650.52 2621.76 660.06 2634.83 673.84C2647.9 687.267 2654.44 704.58 2654.44 725.78C2654.44 741.68 2651.26 755.99 2644.9 768.71C2638.54 781.43 2629.71 792.207 2618.4 801.04C2607.09 809.52 2593.49 816.057 2577.59 820.65C2561.69 825.597 2544.2 828.07 2525.12 828.07C2488.37 828.07 2452.16 817.647 2416.47 796.8L2451.45 728.96C2478.3 747.333 2503.74 756.52 2527.77 756.52C2536.6 756.52 2543.85 754.577 2549.5 750.69C2555.15 746.803 2557.98 741.857 2557.98 735.85C2557.98 732.317 2557.45 729.49 2556.39 727.37C2555.68 724.897 2553.92 722.777 2551.09 721.01C2548.26 718.89 2544.02 717.123 2538.37 715.71C2533.07 713.943 2526 712.177 2517.17 710.41C2487.49 704.403 2466.64 695.57 2454.63 683.91C2442.97 671.897 2437.14 655.467 2437.14 634.62C2437.14 619.427 2439.97 605.823 2445.62 593.81C2451.27 581.443 2459.4 571.02 2470 562.54C2480.6 554.06 2493.32 547.523 2508.16 542.93C2523.35 538.337 2540.14 536.04 2558.51 536.04C2588.54 536.04 2617.69 541.87 2645.96 553.53L2613.63 616.07ZM2885.94 642.57C2882.76 629.143 2876.22 618.367 2866.33 610.24C2856.44 602.113 2844.42 598.05 2830.29 598.05C2815.45 598.05 2803.26 601.937 2793.72 609.71C2784.53 617.483 2778.7 628.437 2776.23 642.57H2885.94ZM2773.58 698.22C2773.58 739.56 2793.01 760.23 2831.88 760.23C2852.73 760.23 2868.45 751.75 2879.05 734.79H2971.8C2953.07 796.977 2906.26 828.07 2831.35 828.07C2808.38 828.07 2787.36 824.713 2768.28 818C2749.2 810.933 2732.77 801.04 2718.99 788.32C2705.56 775.6 2695.14 760.407 2687.72 742.74C2680.3 725.073 2676.59 705.287 2676.59 683.38C2676.59 660.767 2680.12 640.45 2687.19 622.43C2694.26 604.057 2704.33 588.51 2717.4 575.79C2730.47 563.07 2746.2 553.353 2764.57 546.64C2783.3 539.573 2804.32 536.04 2827.64 536.04C2850.61 536.04 2871.28 539.573 2889.65 546.64C2908.02 553.353 2923.57 563.247 2936.29 576.32C2949.01 589.393 2958.73 605.47 2965.44 624.55C2972.15 643.277 2975.51 664.477 2975.51 688.15V698.22H2773.58ZM3014.44 546.11H3110.37V580.56C3123.45 564.66 3136.7 554.06 3150.12 548.76C3163.55 543.107 3179.27 540.28 3197.29 540.28C3216.37 540.28 3232.63 543.46 3246.05 549.82C3259.83 555.827 3271.49 564.483 3281.03 575.79C3288.81 584.977 3294.11 595.223 3296.93 606.53C3299.76 617.837 3301.17 630.733 3301.17 645.22V818H3205.24V680.73C3205.24 667.303 3204.18 656.527 3202.06 648.4C3200.3 639.92 3196.94 633.207 3191.99 628.26C3187.75 624.02 3182.98 621.017 3177.68 619.25C3172.38 617.483 3166.73 616.6 3160.72 616.6C3144.47 616.6 3131.93 621.547 3123.09 631.44C3114.61 640.98 3110.37 654.76 3110.37 672.78V818H3014.44V546.11ZM3457.56 626.14V818H3361.63V626.14H3329.83V546.11H3361.63V464.49H3457.56V546.11H3512.15V626.14H3457.56ZM3635.49 546.11V818H3539.56V546.11H3635.49ZM3533.2 441.7C3533.2 434.28 3534.61 427.39 3537.44 421.03C3540.26 414.317 3544.15 408.487 3549.1 403.54C3554.04 398.593 3559.7 394.707 3566.06 391.88C3572.77 389.053 3579.84 387.64 3587.26 387.64C3594.68 387.64 3601.57 389.053 3607.93 391.88C3614.64 394.707 3620.47 398.593 3625.42 403.54C3630.36 408.487 3634.25 414.317 3637.08 421.03C3639.9 427.39 3641.32 434.28 3641.32 441.7C3641.32 449.12 3639.9 456.187 3637.08 462.9C3634.25 469.26 3630.36 474.913 3625.42 479.86C3620.47 484.807 3614.64 488.693 3607.93 491.52C3601.57 494.347 3594.68 495.76 3587.26 495.76C3579.84 495.76 3572.77 494.347 3566.06 491.52C3559.7 488.693 3554.04 484.807 3549.1 479.86C3544.15 474.913 3540.26 469.26 3537.44 462.9C3534.61 456.187 3533.2 449.12 3533.2 441.7ZM3774.18 681.26C3774.18 690.093 3775.77 698.397 3778.95 706.17C3782.13 713.59 3786.37 720.127 3791.67 725.78C3797.32 731.433 3803.86 735.85 3811.28 739.03C3819.05 742.21 3827.36 743.8 3836.19 743.8C3844.67 743.8 3852.62 742.21 3860.04 739.03C3867.81 735.85 3874.35 731.433 3879.65 725.78C3885.3 720.127 3889.72 713.59 3892.9 706.17C3896.43 698.75 3898.2 690.8 3898.2 682.32C3898.2 673.84 3896.43 665.89 3892.9 658.47C3889.72 650.697 3885.3 643.983 3879.65 638.33C3874.35 632.677 3867.81 628.26 3860.04 625.08C3852.62 621.9 3844.67 620.31 3836.19 620.31C3827.36 620.31 3819.05 621.9 3811.28 625.08C3803.86 628.26 3797.32 632.677 3791.67 638.33C3786.37 643.983 3782.13 650.52 3778.95 657.94C3775.77 665.007 3774.18 672.78 3774.18 681.26ZM3895.02 546.11H3991.48V818H3895.02V787.79C3874.53 813.583 3846.79 826.48 3811.81 826.48C3792.02 826.48 3773.83 822.947 3757.22 815.88C3740.61 808.46 3726.13 798.213 3713.76 785.14C3701.39 772.067 3691.68 756.697 3684.61 739.03C3677.9 721.363 3674.54 702.107 3674.54 681.26C3674.54 661.827 3677.9 643.453 3684.61 626.14C3691.32 608.473 3700.69 593.103 3712.7 580.03C3724.71 566.957 3739.02 556.71 3755.63 549.29C3772.24 541.517 3790.61 537.63 3810.75 537.63C3844.67 537.63 3872.76 549.467 3895.02 573.14V546.11ZM4136.79 378.1V818H4040.86V378.1H4136.79Z" fill="white"/>
<path d="M970 864H370" stroke="white" stroke-width="66.6667" stroke-linecap="round"/>
<path d="M403.336 697.331V630.664" stroke="white" stroke-width="66.6667" stroke-linecap="round"/>
<path d="M670 564V464" stroke="white" stroke-width="66.6667" stroke-linecap="round"/>
<path d="M536.664 697.336V497.336" stroke="white" stroke-width="66.6667" stroke-linecap="round"/>
<path d="M803.336 597.331V530.664" stroke="white" stroke-width="66.6667" stroke-linecap="round"/>
<path d="M936.664 663.997V330.664" stroke="white" stroke-width="66.6667" stroke-linecap="round"/>
</svg>
