<svg width="4440" height="779" viewBox="0 0 4440 779" fill="none" xmlns="http://www.w3.org/2000/svg">
<path d="M1257.66 338.94C1233.63 309.613 1203.95 294.95 1168.62 294.95C1153.07 294.95 1138.59 297.777 1125.16 303.43C1112.09 309.083 1100.78 316.857 1091.24 326.75C1081.7 336.29 1074.1 347.773 1068.45 361.2C1063.15 374.627 1060.5 389.113 1060.5 404.66C1060.5 420.56 1063.15 435.223 1068.45 448.65C1074.1 462.077 1081.7 473.737 1091.24 483.63C1101.13 493.523 1112.62 501.297 1125.69 506.95C1138.76 512.603 1152.9 515.43 1168.09 515.43C1201.3 515.43 1231.16 501.297 1257.66 473.03V595.99L1247.06 599.7C1231.16 605.353 1216.32 609.417 1202.54 611.89C1188.76 614.717 1175.16 616.13 1161.73 616.13C1134.17 616.13 1107.67 611.007 1082.23 600.76C1057.14 590.16 1034.88 575.497 1015.45 556.77C996.37 537.69 981 515.253 969.34 489.46C957.68 463.313 951.85 434.87 951.85 404.13C951.85 373.39 957.503 345.3 968.81 319.86C980.47 294.067 995.84 271.983 1014.92 253.61C1034.35 234.883 1056.79 220.397 1082.23 210.15C1107.67 199.55 1134.35 194.25 1162.26 194.25C1178.16 194.25 1193.71 196.017 1208.9 199.55C1224.45 202.73 1240.7 207.853 1257.66 214.92V338.94ZM1394.4 165.1V605H1298.47V165.1H1394.4ZM1539.98 333.11V605H1444.05V333.11H1539.98ZM1437.69 228.7C1437.69 221.28 1439.1 214.39 1441.93 208.03C1444.76 201.317 1448.64 195.487 1453.59 190.54C1458.54 185.593 1464.19 181.707 1470.55 178.88C1477.26 176.053 1484.33 174.64 1491.75 174.64C1499.17 174.64 1506.06 176.053 1512.42 178.88C1519.13 181.707 1524.96 185.593 1529.91 190.54C1534.86 195.487 1538.74 201.317 1541.57 208.03C1544.4 214.39 1545.81 221.28 1545.81 228.7C1545.81 236.12 1544.4 243.187 1541.57 249.9C1538.74 256.26 1534.86 261.913 1529.91 266.86C1524.96 271.807 1519.13 275.693 1512.42 278.52C1506.06 281.347 1499.17 282.76 1491.75 282.76C1484.33 282.76 1477.26 281.347 1470.55 278.52C1464.19 275.693 1458.54 271.807 1453.59 266.86C1448.64 261.913 1444.76 256.26 1441.93 249.9C1439.1 243.187 1437.69 236.12 1437.69 228.7ZM1794.74 421.09C1778.14 409.783 1761.35 404.13 1744.39 404.13C1735.21 404.13 1726.55 405.72 1718.42 408.9C1710.65 412.08 1703.76 416.673 1697.75 422.68C1691.75 428.333 1686.98 435.223 1683.44 443.35C1680.26 451.123 1678.67 459.957 1678.67 469.85C1678.67 479.39 1680.26 488.223 1683.44 496.35C1686.98 504.123 1691.57 511.013 1697.22 517.02C1703.23 522.673 1710.3 527.09 1718.42 530.27C1726.55 533.45 1735.21 535.04 1744.39 535.04C1762.41 535.04 1779.2 528.857 1794.74 516.49V598.11C1771.07 608.357 1748.63 613.48 1727.43 613.48C1707.65 613.48 1688.74 610.123 1670.72 603.41C1653.06 596.697 1637.33 587.157 1623.55 574.79C1610.13 562.07 1599.35 547.053 1591.22 529.74C1583.1 512.073 1579.03 492.463 1579.03 470.91C1579.03 449.357 1582.92 429.747 1590.69 412.08C1598.47 394.06 1609.07 378.69 1622.49 365.97C1635.92 352.897 1651.82 342.827 1670.19 335.76C1688.92 328.34 1708.88 324.63 1730.08 324.63C1753.4 324.63 1774.96 329.577 1794.74 339.47V421.09ZM1942.95 165.1V431.16L2043.65 333.11H2175.09L2038.88 458.72L2183.04 605H2048.42L1942.95 494.23V605H1847.02V165.1H1942.95ZM2388.63 403.07C2370.96 393.883 2353.65 389.29 2336.69 389.29C2327.86 389.29 2320.61 391.057 2314.96 394.59C2309.66 398.123 2307.01 402.893 2307.01 408.9C2307.01 412.08 2307.36 414.73 2308.07 416.85C2309.13 418.617 2311.07 420.383 2313.9 422.15C2317.08 423.917 2321.5 425.507 2327.15 426.92C2333.16 428.333 2340.93 430.1 2350.47 432.22C2376.97 437.52 2396.76 447.06 2409.83 460.84C2422.9 474.267 2429.44 491.58 2429.44 512.78C2429.44 528.68 2426.26 542.99 2419.9 555.71C2413.54 568.43 2404.71 579.207 2393.4 588.04C2382.09 596.52 2368.49 603.057 2352.59 607.65C2336.69 612.597 2319.2 615.07 2300.12 615.07C2263.37 615.07 2227.16 604.647 2191.47 583.8L2226.45 515.96C2253.3 534.333 2278.74 543.52 2302.77 543.52C2311.6 543.52 2318.85 541.577 2324.5 537.69C2330.15 533.803 2332.98 528.857 2332.98 522.85C2332.98 519.317 2332.45 516.49 2331.39 514.37C2330.68 511.897 2328.92 509.777 2326.09 508.01C2323.26 505.89 2319.02 504.123 2313.37 502.71C2308.07 500.943 2301 499.177 2292.17 497.41C2262.49 491.403 2241.64 482.57 2229.63 470.91C2217.97 458.897 2212.14 442.467 2212.14 421.62C2212.14 406.427 2214.97 392.823 2220.62 380.81C2226.27 368.443 2234.4 358.02 2245 349.54C2255.6 341.06 2268.32 334.523 2283.16 329.93C2298.35 325.337 2315.14 323.04 2333.51 323.04C2363.54 323.04 2392.69 328.87 2420.96 340.53L2388.63 403.07ZM2660.94 429.57C2657.76 416.143 2651.22 405.367 2641.33 397.24C2631.44 389.113 2619.42 385.05 2605.29 385.05C2590.45 385.05 2578.26 388.937 2568.72 396.71C2559.53 404.483 2553.7 415.437 2551.23 429.57H2660.94ZM2548.58 485.22C2548.58 526.56 2568.01 547.23 2606.88 547.23C2627.73 547.23 2643.45 538.75 2654.05 521.79H2746.8C2728.07 583.977 2681.26 615.07 2606.35 615.07C2583.38 615.07 2562.36 611.713 2543.28 605C2524.2 597.933 2507.77 588.04 2493.99 575.32C2480.56 562.6 2470.14 547.407 2462.72 529.74C2455.3 512.073 2451.59 492.287 2451.59 470.38C2451.59 447.767 2455.12 427.45 2462.19 409.43C2469.26 391.057 2479.33 375.51 2492.4 362.79C2505.47 350.07 2521.2 340.353 2539.57 333.64C2558.3 326.573 2579.32 323.04 2602.64 323.04C2625.61 323.04 2646.28 326.573 2664.65 333.64C2683.02 340.353 2698.57 350.247 2711.29 363.32C2724.01 376.393 2733.73 392.47 2740.44 411.55C2747.15 430.277 2750.51 451.477 2750.51 475.15V485.22H2548.58ZM2789.44 333.11H2885.37V367.56C2898.45 351.66 2911.7 341.06 2925.12 335.76C2938.55 330.107 2954.27 327.28 2972.29 327.28C2991.37 327.28 3007.63 330.46 3021.05 336.82C3034.83 342.827 3046.49 351.483 3056.03 362.79C3063.81 371.977 3069.11 382.223 3071.93 393.53C3074.76 404.837 3076.17 417.733 3076.17 432.22V605H2980.24V467.73C2980.24 454.303 2979.18 443.527 2977.06 435.4C2975.3 426.92 2971.94 420.207 2966.99 415.26C2962.75 411.02 2957.98 408.017 2952.68 406.25C2947.38 404.483 2941.73 403.6 2935.72 403.6C2919.47 403.6 2906.93 408.547 2898.09 418.44C2889.61 427.98 2885.37 441.76 2885.37 459.78V605H2789.44V333.11ZM3232.56 413.14V605H3136.63V413.14H3104.83V333.11H3136.63V251.49H3232.56V333.11H3287.15V413.14H3232.56ZM3410.49 333.11V605H3314.56V333.11H3410.49ZM3308.2 228.7C3308.2 221.28 3309.61 214.39 3312.44 208.03C3315.26 201.317 3319.15 195.487 3324.1 190.54C3329.04 185.593 3334.7 181.707 3341.06 178.88C3347.77 176.053 3354.84 174.64 3362.26 174.64C3369.68 174.64 3376.57 176.053 3382.93 178.88C3389.64 181.707 3395.47 185.593 3400.42 190.54C3405.36 195.487 3409.25 201.317 3412.08 208.03C3414.9 214.39 3416.32 221.28 3416.32 228.7C3416.32 236.12 3414.9 243.187 3412.08 249.9C3409.25 256.26 3405.36 261.913 3400.42 266.86C3395.47 271.807 3389.64 275.693 3382.93 278.52C3376.57 281.347 3369.68 282.76 3362.26 282.76C3354.84 282.76 3347.77 281.347 3341.06 278.52C3334.7 275.693 3329.04 271.807 3324.1 266.86C3319.15 261.913 3315.26 256.26 3312.44 249.9C3309.61 243.187 3308.2 236.12 3308.2 228.7ZM3549.18 468.26C3549.18 477.093 3550.77 485.397 3553.95 493.17C3557.13 500.59 3561.37 507.127 3566.67 512.78C3572.32 518.433 3578.86 522.85 3586.28 526.03C3594.05 529.21 3602.36 530.8 3611.19 530.8C3619.67 530.8 3627.62 529.21 3635.04 526.03C3642.81 522.85 3649.35 518.433 3654.65 512.78C3660.3 507.127 3664.72 500.59 3667.9 493.17C3671.43 485.75 3673.2 477.8 3673.2 469.32C3673.2 460.84 3671.43 452.89 3667.9 445.47C3664.72 437.697 3660.3 430.983 3654.65 425.33C3649.35 419.677 3642.81 415.26 3635.04 412.08C3627.62 408.9 3619.67 407.31 3611.19 407.31C3602.36 407.31 3594.05 408.9 3586.28 412.08C3578.86 415.26 3572.32 419.677 3566.67 425.33C3561.37 430.983 3557.13 437.52 3553.95 444.94C3550.77 452.007 3549.18 459.78 3549.18 468.26ZM3670.02 333.11H3766.48V605H3670.02V574.79C3649.53 600.583 3621.79 613.48 3586.81 613.48C3567.02 613.48 3548.83 609.947 3532.22 602.88C3515.61 595.46 3501.13 585.213 3488.76 572.14C3476.39 559.067 3466.68 543.697 3459.61 526.03C3452.9 508.363 3449.54 489.107 3449.54 468.26C3449.54 448.827 3452.9 430.453 3459.61 413.14C3466.32 395.473 3475.69 380.103 3487.7 367.03C3499.71 353.957 3514.02 343.71 3530.63 336.29C3547.24 328.517 3565.61 324.63 3585.75 324.63C3619.67 324.63 3647.76 336.467 3670.02 360.14V333.11ZM3911.79 165.1V605H3815.86V165.1H3911.79Z" fill="white"/>
<path d="M498 690C663.685 690 798 555.685 798 390C798 224.315 663.685 90 498 90C332.315 90 198 224.315 198 390C198 555.685 332.315 690 498 690Z" fill="#21D0C3"/>
<path d="M351.384 243.531H432.772V341.748C421.819 293.795 371.234 301.37 362.558 259.655C361.576 254.917 350.685 254.639 351.384 243.531ZM351.384 506.83H432.772V605.048C421.819 557.095 371.234 564.67 362.558 522.954C361.576 518.211 350.685 517.939 351.384 506.83ZM640.182 506.83H558.794V605.048C569.746 557.095 620.331 564.67 629.008 522.954C629.99 518.211 640.883 517.939 640.182 506.83ZM351.384 375.184H432.772V473.402C421.819 425.448 371.234 433.023 362.558 391.308C361.576 386.569 350.685 386.291 351.384 375.184ZM640.182 375.184H558.794V473.402C569.746 425.448 620.331 433.023 629.008 391.308C629.99 386.569 640.883 386.291 640.182 375.184ZM640.182 243.531H558.794V341.748C569.746 293.795 620.331 301.37 629.008 259.655C629.99 254.917 640.883 254.639 640.182 243.531Z" fill="#10ADA3"/>
<path d="M482.589 207.211H508.986C549.908 207.211 583.388 240.696 583.388 281.612V593.347C583.388 602.256 576.101 609.543 567.192 609.543H424.383C415.474 609.543 408.188 602.256 408.188 593.347V281.612C408.188 240.69 441.673 207.211 482.589 207.211Z" fill="white"/>
<path d="M495.782 358.66C523.24 358.66 545.501 380.921 545.501 408.379C545.501 435.838 523.24 458.098 495.782 458.098C468.323 458.098 446.062 435.838 446.062 408.379C446.062 380.921 468.321 358.66 495.782 358.66Z" fill="#ECF0F1"/>
<path d="M495.782 227.07C523.24 227.07 545.501 249.331 545.501 276.789C545.501 304.248 523.24 326.509 495.782 326.509C468.323 326.509 446.062 304.248 446.062 276.789C446.062 249.331 468.321 227.07 495.782 227.07Z" fill="#ECF0F1"/>
<path d="M495.781 238C517.203 238 534.576 255.367 534.576 276.789C534.576 298.211 517.209 315.578 495.781 315.578C474.359 315.578 456.992 298.211 456.992 276.789C456.992 255.367 474.358 238 495.781 238Z" fill="#FF5B62"/>
<path d="M495.781 369.586C517.203 369.586 534.576 386.953 534.576 408.381C534.576 429.803 517.209 447.17 495.781 447.17C474.359 447.17 456.992 429.803 456.992 408.381C456.991 386.959 474.358 369.586 495.781 369.586Z" fill="#FAD24D"/>
<path d="M495.782 490.25C523.24 490.25 545.501 512.511 545.501 539.963C545.501 567.427 523.24 589.682 495.782 589.682C468.323 589.682 446.063 567.427 446.063 539.963C446.061 512.505 468.321 490.25 495.782 490.25Z" fill="#ECF0F1"/>
<path d="M495.781 501.172C517.203 501.172 534.576 518.539 534.576 539.967C534.576 561.389 517.209 578.756 495.781 578.756C474.359 578.756 456.992 561.389 456.992 539.967C456.992 518.545 474.358 501.172 495.781 501.172Z" fill="#21D0C3"/>
<path d="M492.044 124.298H513.232H637.393C655.687 133.918 672.872 145.348 688.696 158.388H516.919C514.892 158.388 513.231 160.048 513.231 162.076V207.752H479.758V153.106V136.589C479.758 129.818 485.279 124.297 492.05 124.297L492.044 124.298Z" fill="#ECF0F1"/>
<path d="M688.686 158.392H516.911C514.884 158.392 513.223 160.053 513.223 162.08V207.756H506.875V158.836C506.875 155.454 509.641 152.688 513.024 152.688H681.527C683.943 154.56 686.331 156.448 688.686 158.392Z" fill="#C9CACC"/>
<path d="M583.377 341.297H408.172V343.507H583.377V341.297Z" fill="#ECF0F1"/>
<path d="M583.221 471.531H408.344V473.741H583.221V471.531Z" fill="#ECF0F1"/>
</svg>
